<mxfile host="app.diagrams.net" modified="2023-09-14T12:48:26.698Z" agent="Mozilla/5.0 (X11; Linux x86_64; rv:109.0) Gecko/20100101 Firefox/117.0" etag="DkJhlTSAQ3Eo6Pc9L99S" version="21.6.9" type="github">
  <diagram name="Page-1" id="SAqlBFbOTdl7joELZFH2">
    <mxGraphModel dx="3004" dy="718" grid="1" gridSize="10" guides="1" tooltips="1" connect="1" arrows="1" fold="1" page="1" pageScale="1" pageWidth="850" pageHeight="1100" math="0" shadow="0">
      <root>
        <mxCell id="0" />
        <mxCell id="1" parent="0" />
        <mxCell id="4glDPjy44DgBdv_v6pXj-3" value="" style="group" vertex="1" connectable="0" parent="1">
          <mxGeometry x="-570" y="145" width="440" height="120" as="geometry" />
        </mxCell>
        <mxCell id="4glDPjy44DgBdv_v6pXj-4" value="Спектакль" style="whiteSpace=wrap;html=1;align=center;" vertex="1" parent="4glDPjy44DgBdv_v6pXj-3">
          <mxGeometry x="190" y="80" width="100" height="40" as="geometry" />
        </mxCell>
        <mxCell id="4glDPjy44DgBdv_v6pXj-5" style="edgeStyle=orthogonalEdgeStyle;rounded=0;orthogonalLoop=1;jettySize=auto;html=1;entryX=0.5;entryY=0;entryDx=0;entryDy=0;" edge="1" parent="4glDPjy44DgBdv_v6pXj-3" source="4glDPjy44DgBdv_v6pXj-6" target="4glDPjy44DgBdv_v6pXj-4">
          <mxGeometry relative="1" as="geometry">
            <Array as="points">
              <mxPoint x="190" y="60" />
              <mxPoint x="240" y="60" />
            </Array>
          </mxGeometry>
        </mxCell>
        <mxCell id="4glDPjy44DgBdv_v6pXj-6" value="&lt;u&gt;Номер&lt;/u&gt;" style="ellipse;whiteSpace=wrap;html=1;align=center;" vertex="1" parent="4glDPjy44DgBdv_v6pXj-3">
          <mxGeometry x="140" width="100" height="40" as="geometry" />
        </mxCell>
        <mxCell id="4glDPjy44DgBdv_v6pXj-7" value="" style="edgeStyle=orthogonalEdgeStyle;rounded=0;orthogonalLoop=1;jettySize=auto;html=1;" edge="1" parent="4glDPjy44DgBdv_v6pXj-3" source="4glDPjy44DgBdv_v6pXj-8" target="4glDPjy44DgBdv_v6pXj-4">
          <mxGeometry relative="1" as="geometry" />
        </mxCell>
        <mxCell id="4glDPjy44DgBdv_v6pXj-8" value="Название" style="ellipse;whiteSpace=wrap;html=1;align=center;" vertex="1" parent="4glDPjy44DgBdv_v6pXj-3">
          <mxGeometry x="250" width="100" height="40" as="geometry" />
        </mxCell>
        <mxCell id="4glDPjy44DgBdv_v6pXj-31" value="" style="group" vertex="1" connectable="0" parent="1">
          <mxGeometry x="-1000" y="580" width="440" height="120" as="geometry" />
        </mxCell>
        <mxCell id="4glDPjy44DgBdv_v6pXj-32" value="Билет" style="whiteSpace=wrap;html=1;align=center;" vertex="1" parent="4glDPjy44DgBdv_v6pXj-31">
          <mxGeometry x="110" y="80" width="100" height="40" as="geometry" />
        </mxCell>
        <mxCell id="4glDPjy44DgBdv_v6pXj-33" style="edgeStyle=orthogonalEdgeStyle;rounded=0;orthogonalLoop=1;jettySize=auto;html=1;entryX=0.5;entryY=0;entryDx=0;entryDy=0;" edge="1" parent="4glDPjy44DgBdv_v6pXj-31" source="4glDPjy44DgBdv_v6pXj-34" target="4glDPjy44DgBdv_v6pXj-32">
          <mxGeometry relative="1" as="geometry">
            <Array as="points">
              <mxPoint x="50" y="60" />
              <mxPoint x="160" y="60" />
            </Array>
          </mxGeometry>
        </mxCell>
        <mxCell id="4glDPjy44DgBdv_v6pXj-34" value="&lt;u&gt;Номер&lt;/u&gt;" style="ellipse;whiteSpace=wrap;html=1;align=center;" vertex="1" parent="4glDPjy44DgBdv_v6pXj-31">
          <mxGeometry width="100" height="40" as="geometry" />
        </mxCell>
        <mxCell id="4glDPjy44DgBdv_v6pXj-35" value="" style="edgeStyle=orthogonalEdgeStyle;rounded=0;orthogonalLoop=1;jettySize=auto;html=1;" edge="1" parent="4glDPjy44DgBdv_v6pXj-31" source="4glDPjy44DgBdv_v6pXj-36" target="4glDPjy44DgBdv_v6pXj-32">
          <mxGeometry relative="1" as="geometry" />
        </mxCell>
        <mxCell id="4glDPjy44DgBdv_v6pXj-36" value="Цена" style="ellipse;whiteSpace=wrap;html=1;align=center;" vertex="1" parent="4glDPjy44DgBdv_v6pXj-31">
          <mxGeometry x="110" width="100" height="40" as="geometry" />
        </mxCell>
        <mxCell id="4glDPjy44DgBdv_v6pXj-37" style="edgeStyle=orthogonalEdgeStyle;rounded=0;orthogonalLoop=1;jettySize=auto;html=1;entryX=0.5;entryY=0;entryDx=0;entryDy=0;" edge="1" parent="4glDPjy44DgBdv_v6pXj-31" source="4glDPjy44DgBdv_v6pXj-38" target="4glDPjy44DgBdv_v6pXj-32">
          <mxGeometry relative="1" as="geometry">
            <Array as="points">
              <mxPoint x="270" y="60" />
              <mxPoint x="160" y="60" />
            </Array>
          </mxGeometry>
        </mxCell>
        <mxCell id="4glDPjy44DgBdv_v6pXj-38" value="Тип места" style="ellipse;whiteSpace=wrap;html=1;align=center;" vertex="1" parent="4glDPjy44DgBdv_v6pXj-31">
          <mxGeometry x="220" width="100" height="40" as="geometry" />
        </mxCell>
        <mxCell id="4glDPjy44DgBdv_v6pXj-97" value="" style="group" vertex="1" connectable="0" parent="1">
          <mxGeometry x="-1040" y="145" width="230" height="120" as="geometry" />
        </mxCell>
        <mxCell id="4glDPjy44DgBdv_v6pXj-82" value="Актёр" style="whiteSpace=wrap;html=1;align=center;" vertex="1" parent="4glDPjy44DgBdv_v6pXj-97">
          <mxGeometry x="130" y="80" width="100" height="40" as="geometry" />
        </mxCell>
        <mxCell id="4glDPjy44DgBdv_v6pXj-83" style="edgeStyle=orthogonalEdgeStyle;rounded=0;orthogonalLoop=1;jettySize=auto;html=1;entryX=0.5;entryY=0;entryDx=0;entryDy=0;exitX=0.5;exitY=1;exitDx=0;exitDy=0;" edge="1" parent="4glDPjy44DgBdv_v6pXj-97" source="4glDPjy44DgBdv_v6pXj-84" target="4glDPjy44DgBdv_v6pXj-82">
          <mxGeometry relative="1" as="geometry">
            <Array as="points">
              <mxPoint x="70" y="60" />
              <mxPoint x="180" y="60" />
            </Array>
          </mxGeometry>
        </mxCell>
        <mxCell id="4glDPjy44DgBdv_v6pXj-84" value="&lt;u&gt;Паспорт&lt;/u&gt;" style="ellipse;whiteSpace=wrap;html=1;align=center;" vertex="1" parent="4glDPjy44DgBdv_v6pXj-97">
          <mxGeometry x="20" width="100" height="40" as="geometry" />
        </mxCell>
        <mxCell id="4glDPjy44DgBdv_v6pXj-85" value="" style="edgeStyle=orthogonalEdgeStyle;rounded=0;orthogonalLoop=1;jettySize=auto;html=1;" edge="1" parent="4glDPjy44DgBdv_v6pXj-97" source="4glDPjy44DgBdv_v6pXj-86" target="4glDPjy44DgBdv_v6pXj-82">
          <mxGeometry relative="1" as="geometry" />
        </mxCell>
        <mxCell id="4glDPjy44DgBdv_v6pXj-86" value="ФИО" style="ellipse;whiteSpace=wrap;html=1;align=center;" vertex="1" parent="4glDPjy44DgBdv_v6pXj-97">
          <mxGeometry x="130" width="100" height="40" as="geometry" />
        </mxCell>
        <mxCell id="4glDPjy44DgBdv_v6pXj-98" value="" style="group" vertex="1" connectable="0" parent="1">
          <mxGeometry x="-180" y="420" width="440" height="120" as="geometry" />
        </mxCell>
        <mxCell id="4glDPjy44DgBdv_v6pXj-99" value="Афиша" style="whiteSpace=wrap;html=1;align=center;" vertex="1" parent="4glDPjy44DgBdv_v6pXj-98">
          <mxGeometry x="110" y="80" width="100" height="40" as="geometry" />
        </mxCell>
        <mxCell id="4glDPjy44DgBdv_v6pXj-100" style="edgeStyle=orthogonalEdgeStyle;rounded=0;orthogonalLoop=1;jettySize=auto;html=1;entryX=0.5;entryY=0;entryDx=0;entryDy=0;" edge="1" parent="4glDPjy44DgBdv_v6pXj-98" source="4glDPjy44DgBdv_v6pXj-101" target="4glDPjy44DgBdv_v6pXj-99">
          <mxGeometry relative="1" as="geometry">
            <Array as="points">
              <mxPoint x="50" y="60" />
              <mxPoint x="160" y="60" />
            </Array>
          </mxGeometry>
        </mxCell>
        <mxCell id="4glDPjy44DgBdv_v6pXj-101" value="&lt;u&gt;Номер&lt;/u&gt;" style="ellipse;whiteSpace=wrap;html=1;align=center;" vertex="1" parent="4glDPjy44DgBdv_v6pXj-98">
          <mxGeometry width="100" height="40" as="geometry" />
        </mxCell>
        <mxCell id="4glDPjy44DgBdv_v6pXj-102" value="" style="edgeStyle=orthogonalEdgeStyle;rounded=0;orthogonalLoop=1;jettySize=auto;html=1;" edge="1" parent="4glDPjy44DgBdv_v6pXj-98" source="4glDPjy44DgBdv_v6pXj-103" target="4glDPjy44DgBdv_v6pXj-99">
          <mxGeometry relative="1" as="geometry" />
        </mxCell>
        <mxCell id="4glDPjy44DgBdv_v6pXj-103" value="Дата и время проведения" style="ellipse;whiteSpace=wrap;html=1;align=center;" vertex="1" parent="4glDPjy44DgBdv_v6pXj-98">
          <mxGeometry x="110" width="100" height="40" as="geometry" />
        </mxCell>
        <mxCell id="4glDPjy44DgBdv_v6pXj-104" style="edgeStyle=orthogonalEdgeStyle;rounded=0;orthogonalLoop=1;jettySize=auto;html=1;entryX=0.5;entryY=0;entryDx=0;entryDy=0;" edge="1" parent="4glDPjy44DgBdv_v6pXj-98" source="4glDPjy44DgBdv_v6pXj-105" target="4glDPjy44DgBdv_v6pXj-99">
          <mxGeometry relative="1" as="geometry">
            <Array as="points">
              <mxPoint x="270" y="60" />
              <mxPoint x="160" y="60" />
            </Array>
          </mxGeometry>
        </mxCell>
        <mxCell id="4glDPjy44DgBdv_v6pXj-105" value="Кол-во мест" style="ellipse;whiteSpace=wrap;html=1;align=center;" vertex="1" parent="4glDPjy44DgBdv_v6pXj-98">
          <mxGeometry x="220" width="100" height="40" as="geometry" />
        </mxCell>
        <mxCell id="4glDPjy44DgBdv_v6pXj-106" value="&lt;div&gt;Играет&lt;/div&gt;" style="shape=rhombus;perimeter=rhombusPerimeter;whiteSpace=wrap;html=1;align=center;" vertex="1" parent="1">
          <mxGeometry x="-680" y="215" width="120" height="60" as="geometry" />
        </mxCell>
        <mxCell id="4glDPjy44DgBdv_v6pXj-107" value="" style="endArrow=none;html=1;rounded=0;dashed=1;dashPattern=1 2;exitX=1;exitY=0.5;exitDx=0;exitDy=0;entryX=0;entryY=0.5;entryDx=0;entryDy=0;" edge="1" parent="1" source="4glDPjy44DgBdv_v6pXj-106" target="4glDPjy44DgBdv_v6pXj-4">
          <mxGeometry relative="1" as="geometry">
            <mxPoint x="-680" y="560" as="sourcePoint" />
            <mxPoint x="-670" y="300" as="targetPoint" />
            <Array as="points" />
          </mxGeometry>
        </mxCell>
        <mxCell id="4glDPjy44DgBdv_v6pXj-108" value="&lt;div&gt;М&lt;/div&gt;" style="resizable=0;html=1;whiteSpace=wrap;align=right;verticalAlign=bottom;" connectable="0" vertex="1" parent="4glDPjy44DgBdv_v6pXj-107">
          <mxGeometry x="1" relative="1" as="geometry">
            <mxPoint x="-11" y="22" as="offset" />
          </mxGeometry>
        </mxCell>
        <mxCell id="4glDPjy44DgBdv_v6pXj-109" value="" style="shape=link;html=1;rounded=0;exitX=0;exitY=0.5;exitDx=0;exitDy=0;entryX=1;entryY=0.5;entryDx=0;entryDy=0;" edge="1" parent="1" source="4glDPjy44DgBdv_v6pXj-106" target="4glDPjy44DgBdv_v6pXj-82">
          <mxGeometry relative="1" as="geometry">
            <mxPoint x="-660" y="340" as="sourcePoint" />
            <mxPoint x="-830" y="350" as="targetPoint" />
            <Array as="points" />
          </mxGeometry>
        </mxCell>
        <mxCell id="4glDPjy44DgBdv_v6pXj-110" value="N" style="resizable=0;html=1;whiteSpace=wrap;align=right;verticalAlign=bottom;" connectable="0" vertex="1" parent="4glDPjy44DgBdv_v6pXj-109">
          <mxGeometry x="1" relative="1" as="geometry">
            <mxPoint x="22" as="offset" />
          </mxGeometry>
        </mxCell>
        <mxCell id="4glDPjy44DgBdv_v6pXj-118" value="Проходит" style="shape=rhombus;perimeter=rhombusPerimeter;whiteSpace=wrap;html=1;align=center;" vertex="1" parent="1">
          <mxGeometry x="-390" y="490" width="120" height="60" as="geometry" />
        </mxCell>
        <mxCell id="4glDPjy44DgBdv_v6pXj-123" value="" style="endArrow=none;html=1;rounded=0;dashed=1;dashPattern=1 2;exitX=0.5;exitY=0;exitDx=0;exitDy=0;entryX=0.5;entryY=1;entryDx=0;entryDy=0;" edge="1" parent="1" source="4glDPjy44DgBdv_v6pXj-118" target="4glDPjy44DgBdv_v6pXj-4">
          <mxGeometry relative="1" as="geometry">
            <mxPoint x="-260" y="530" as="sourcePoint" />
            <mxPoint x="-60" y="530" as="targetPoint" />
            <Array as="points" />
          </mxGeometry>
        </mxCell>
        <mxCell id="4glDPjy44DgBdv_v6pXj-124" value="&lt;div&gt;М&lt;/div&gt;" style="resizable=0;html=1;whiteSpace=wrap;align=right;verticalAlign=bottom;" connectable="0" vertex="1" parent="4glDPjy44DgBdv_v6pXj-123">
          <mxGeometry x="1" relative="1" as="geometry">
            <mxPoint x="-11" y="22" as="offset" />
          </mxGeometry>
        </mxCell>
        <mxCell id="4glDPjy44DgBdv_v6pXj-125" value="" style="shape=link;html=1;rounded=0;entryX=0;entryY=0.5;entryDx=0;entryDy=0;exitX=1;exitY=0.5;exitDx=0;exitDy=0;" edge="1" parent="1" source="4glDPjy44DgBdv_v6pXj-118" target="4glDPjy44DgBdv_v6pXj-99">
          <mxGeometry relative="1" as="geometry">
            <mxPoint x="-470" y="440" as="sourcePoint" />
            <mxPoint x="-310" y="440" as="targetPoint" />
          </mxGeometry>
        </mxCell>
        <mxCell id="4glDPjy44DgBdv_v6pXj-126" value="N" style="resizable=0;html=1;whiteSpace=wrap;align=right;verticalAlign=bottom;" connectable="0" vertex="1" parent="4glDPjy44DgBdv_v6pXj-125">
          <mxGeometry x="1" relative="1" as="geometry">
            <mxPoint x="-7" y="-2" as="offset" />
          </mxGeometry>
        </mxCell>
      </root>
    </mxGraphModel>
  </diagram>
</mxfile>
